<svg xmlns="http://www.w3.org/2000/svg" width="24px" height="24px" viewBox="0 0 24 24" version="1.1" class="icon icon-tabler icon-tabler-prep" stroke-width="1" stroke="currentColor" fill="none" stroke-linecap="round" stroke-linejoin="round">
<path stroke="none" d="M0 0h24v24H0z" fill="none"/>
<path d="M 22.96875 22.679688 C 22.941406 22.625 22.90625 22.566406 22.878906 22.511719 C 22.804688 22.375 22.730469 22.238281 22.652344 22.097656 C 19.476562 16.484375 12.019531 9.582031 11.492188 9.09375 L 11.554688 9.03125 C 11.578125 9.003906 11.59375 8.972656 11.59375 8.933594 C 11.59375 8.898438 11.578125 8.867188 11.554688 8.839844 L 3.453125 0.75 L 0.84375 3.359375 C 0.84375 3.359375 0.660156 3.535156 0.808594 3.683594 C 1.144531 4.019531 1.386719 3.890625 1.691406 3.957031 C 2.105469 4.050781 2.578125 4.519531 2.578125 4.519531 L 9.324219 11.257812 L 9.347656 11.234375 C 9.617188 11.640625 8.621094 12.949219 7.847656 13.867188 C 7.597656 14.164062 7.339844 14.453125 7.078125 14.738281 L 7.039062 14.78125 L 7.019531 14.800781 C 15.261719 23.035156 22.457031 23.25 23.183594 23.25 L 23.191406 23.25 C 23.230469 23.25 23.25 23.25 23.25 23.25 C 23.160156 23.058594 23.066406 22.867188 22.96875 22.679688 M 3.414062 3.03125 C 3.285156 3.152344 3.082031 3.148438 2.957031 3.023438 C 2.835938 2.898438 2.828125 2.695312 2.949219 2.566406 C 3.078125 2.4375 3.285156 2.4375 3.414062 2.566406 C 3.542969 2.695312 3.542969 2.902344 3.414062 3.03125 M 8.394531 14.398438 C 9.726562 12.851562 10.121094 11.960938 10.15625 11.425781 L 11.476562 10.105469 C 13.214844 11.753906 18.855469 17.253906 21.6875 21.933594 C 18.925781 21.386719 13.933594 19.679688 8.394531 14.398438 "/>
</svg>
